<?xml version="1.0" encoding="UTF-8" standalone="no"?>
<svg
   xmlns:dc="http://purl.org/dc/elements/1.1/"
   xmlns:cc="http://creativecommons.org/ns#"
   xmlns:rdf="http://www.w3.org/1999/02/22-rdf-syntax-ns#"
   xmlns:svg="http://www.w3.org/2000/svg"
   xmlns="http://www.w3.org/2000/svg"
   xmlns:sodipodi="http://sodipodi.sourceforge.net/DTD/sodipodi-0.dtd"
   xmlns:inkscape="http://www.inkscape.org/namespaces/inkscape"
   width="500"
   height="500"
   viewBox="0 0 132.29166 132.29167"
   version="1.1"
   id="svg8"
   inkscape:version="1.0.1 (3bc2e813f5, 2020-09-07)"
   sodipodi:docname="drag_over_helper.svg"
   inkscape:export-filename="C:\dev\circular-loom\cloom\src\assets\drag_over_helper.png"
   inkscape:export-xdpi="96"
   inkscape:export-ydpi="96">
  <defs
     id="defs2" />
  <sodipodi:namedview
     id="base"
     pagecolor="#ffffff"
     bordercolor="#666666"
     borderopacity="1.0"
     inkscape:pageopacity="0.0"
     inkscape:pageshadow="2"
     inkscape:zoom="1.979899"
     inkscape:cx="175.55687"
     inkscape:cy="227.30399"
     inkscape:document-units="mm"
     inkscape:current-layer="layer1"
     inkscape:document-rotation="0"
     showgrid="false"
     units="px"
     inkscape:window-width="1438"
     inkscape:window-height="967"
     inkscape:window-x="2386"
     inkscape:window-y="34"
     inkscape:window-maximized="0" />
  <metadata
     id="metadata5">
    <rdf:RDF>
      <cc:Work
         rdf:about="">
        <dc:format>image/svg+xml</dc:format>
        <dc:type
           rdf:resource="http://purl.org/dc/dcmitype/StillImage" />
        <dc:title></dc:title>
      </cc:Work>
    </rdf:RDF>
  </metadata>
  <g
     inkscape:label="Calque 1"
     inkscape:groupmode="layer"
     id="layer1">
    <rect
       style="fill:#000000;fill-rule:evenodd;stroke-width:0.526104;fill-opacity:0.2"
       id="rect10"
       width="132.29167"
       height="132.29167"
       x="0"
       y="-3.5527137e-15" />
    <g
       id="camera"
       transform="matrix(2.4473958,0,0,2.4498457,26.9875,25.72338)">
      <path
         clip-rule="evenodd"
         d="m 16,10.001 c -4.419,0 -8,3.581 -8,8 0,4.418 3.581,8 8,8 4.418,0 8,-3.582 8,-8 0,-4.418 -3.582,-8 -8,-8 z m 4.555,11.905 c -2.156,2.516 -5.943,2.807 -8.459,0.65 -2.517,-2.156 -2.807,-5.944 -0.65,-8.459 2.155,-2.517 5.943,-2.807 8.459,-0.65 2.515,2.155 2.806,5.944 0.65,8.459 z"
         fill="#333333"
         fill-rule="evenodd"
         id="path853" />
      <path
         clip-rule="evenodd"
         d="m 16,14.001 c -2.209,0 -3.999,1.791 -4,3.999 v 0.002 c 0,0.275 0.224,0.5 0.5,0.5 0.276,0 0.5,-0.225 0.5,-0.5 V 18 c 10e-4,-1.656 1.343,-2.999 3,-2.999 0.276,0 0.5,-0.224 0.5,-0.5 0,-0.276 -0.224,-0.5 -0.5,-0.5 z"
         fill="#333333"
         fill-rule="evenodd"
         id="path855" />
      <path
         clip-rule="evenodd"
         d="M 29.492,9.042 25.158,8.319 23.785,4.885 C 23.326,3.74 22.232,3 21,3 H 11 C 9.768,3 8.674,3.74 8.214,4.886 L 6.842,8.319 2.509,9.042 C 1.055,9.283 0,10.527 0,12 v 15 c 0,1.654 1.346,3 3,3 h 26 c 1.654,0 3,-1.346 3,-3 V 12 C 32,10.527 30.945,9.283 29.492,9.042 Z M 29.945946,27 c 0,0.553 -0.392946,0.948 -0.945946,0.948 H 3 C 2.447,27.948 2.0540541,27.553 2.0540541,27 V 12 C 2.0540541,11.511 2.354,11.094 2.836,11.014 L 8.28,10.107 10.071,5.629 C 10.224,5.25 10.591,4.9439998 11,4.9439998 h 10 c 0.408,0 0.775,0.3050002 0.928,0.6850002 l 1.791,4.478 5.445,0.907 c 0.482,0.08 0.781946,0.497 0.781946,0.986 z"
         fill="#333333"
         fill-rule="evenodd"
         id="path857"
         sodipodi:nodetypes="cccsscccsssssscssssscccsscccss" />
    </g>
  </g>
</svg>
